/* XPM */
static char * ea1_xpm[] = {
"64 64 2 1",
" 	c #0040C6",
".	c #000D28",
"                                                                ",
"                                                                ",
"                                                                ",
"             ........................................           ",
"            ..........................................          ",
"           ............................................         ",
"           ............................................         ",
"           ............................................         ",
"           ............................................         ",
"           ............................................         ",
"           ...........................................          ",
"           ..........................................           ",
"           .........                                            ",
"           .........                                            ",
"           .........                                            ",
"           .........                                            ",
"           .........                                            ",
"           .........                                            ",
"           .........                                            ",
"           .........                                            ",
"           .........                                            ",
"           .........                                            ",
"           .........                                            ",
"           .........                                            ",
"           .........                                            ",
"           .........                                            ",
"           .........                                            ",
"           .........................................            ",
"           ..........................................           ",
"           ...........................................          ",
"           ...........................................          ",
"           ...........................................          ",
"           ...........................................          ",
"           ...........................................          ",
"           ..........................................           ",
"           .........................................            ",
"           .........                                            ",
"           .........                                            ",
"           .........                                            ",
"           .........                                            ",
"           .........                                            ",
"           .........                                            ",
"           .........                                            ",
"           .........                                            ",
"           .........                                            ",
"           .........                                            ",
"           .........                                            ",
"           .........                                            ",
"           .........                                            ",
"           .........                                            ",
"           .........                                            ",
"           .........                                            ",
"           ..........................................           ",
"           ...........................................          ",
"           ............................................         ",
"           ............................................         ",
"           ............................................         ",
"           ............................................         ",
"           ............................................         ",
"            ..........................................          ",
"             ........................................           ",
"                                                                ",
"                                                                ",
"                                                                "};
