/* XPM */
static char * s0_xpm[] = {
"64 64 4 1",
" 	c None",
".	c #034541",
"+	c #032F2D",
"@	c #062221",
"                                                                ",
"                                                                ",
"                                                                ",
"                                  .......                       ",
"                                ...........                     ",
"                              ...............                   ",
"                             .................                  ",
"                           .....................                ",
"                          ...........++++........               ",
"                          .........++++++++.......              ",
"                         .........+++++++++........             ",
"                        .........+++++++++++........            ",
"                       .........++++++++++++........            ",
"                      .........+++++++++++++.........           ",
"                      ........+++++++++++++++........           ",
"                     ........++++++++++++++++........           ",
"                    .........+++++++++++++++++........          ",
"                    ........++++++++++++++++++........          ",
"                   .........++++++++++++++++++........          ",
"                   ........++++++++++++++++++.........          ",
"                   .......+++++++++++++++++++.........          ",
"                  ........+++++++++++++++++++.........          ",
"                  .......+++++++++++++++++++..........          ",
"                  ......++++++++++++++++++++...........         ",
"                 ......+++++++@@@+++++++++++...........         ",
"                 ......+++++@@@@@@@+++++++++...........         ",
"                 .....+++++@@@@@@@@+++++++++...........         ",
"                .....+++++@@@@@@@@@@++++++++............        ",
"                .....+++++@@@@@@@@@@++++++++............        ",
"               .....+++++@@@@@@@@@@@+++++++.............        ",
"               .....++++@@@@@@@@@@@++++++++.............        ",
"              .....++++@@@@@@@@@@@@++++++++..............       ",
"              ....+++++@@@@@@@@@@@+++++++++..............       ",
"             .....++++@@@@@@@@@@@++++++++++..............       ",
"             ....+++++@@@@@@@@@@@+++++++++...............       ",
"            .....++++@@@@@@@@@@@++++++++++................      ",
"            ....+++++@@@@@@@@@@++++++++++.................      ",
"            ....++++@@@@@@@@@@@@+++++++++.................      ",
"           ....+++++@@@@@@@@@@@@@@++++++..................      ",
"           ....+++++@@@@@@@@@@@@@@++++++...................     ",
"           ...+++++@@@@@@@@@@@@@@@@+++++...................     ",
"           ...+++++@@@@@@@@@@@@@@@@++++....................     ",
"          ...++++++@@@@@@@@@@@@@@@@++++.....................    ",
"          ...++++++@@@@@@@@@@@@@@@@++++.....................    ",
"          ...++++++@@@@@@@@@@@@@@@@++++......................   ",
"         ...++++++@@@@@@@@@@@@@@@@@++++......................   ",
"         ...++++++@@@@@@@@@@@@@@@@@++++......................   ",
"         ...++++++@@@@@@@@@@@@@@@@@+++++......................  ",
"        ....++++++@@@@@@@@@@@@@@@@@+++++......................  ",
"        ....++++++@@@@@@@@@@@@@@@@++++++......................  ",
"       ....+++++++@@@@@@@@@@@@@@@@++++++......................  ",
"      .....+++++++@@@@@@@@@@@@@@@@++++++......................  ",
"      ....+++++++@@@@@@@@@@@@@@@@@+++++++.....................  ",
"     .....+++++++@@@@@@@@@@@@@@@@@+++++++.....................  ",
"     .....++++++@@@@@@@@@@@@@@@@@++++++++.....................  ",
"    .....+++++++@@@@@@@@@@@@@@@@@++++++++.....................  ",
"   ......++++++@@@@@@@@@@@@@@@@@@+++++++++..................... ",
"   .....+++++++@@@@@@@@@@@@@@@@@@+++++++++......................",
"  ......++++++@@@@@@@@@@@@@@@@@@@++++++++++.....................",
".......+++++++@@@@@@@@@@@@@@@@@@@++++++++++.....................",
".......++++++@@@@@@@@@@@@@@@@@@@@+++++++++++....................",
"......+++++++@@@@@@@@@@@@@@@@@@@@+++++++++++....................",
"......++++++@@@@@@@@@@@@@@@@@@@@@+++++++++++....................",
"......++++++@@@@@@@@@@@@@@@@@@@@++++++++++++...................."};
