/* XPM */
static char * s1_xpm[] = {
"64 64 3 1",
" 	c None",
".	c #FF5800",
"+	c #221C06",
"......++++++                                         ++++.......",
".......++++++                                       ++++........",
"........++++++                                     ++++.........",
".........+++++                                    ++++..........",
"..........+++++                                  ++++...........",
"...........+++++                                ++++............",
"............+++++                               +++.............",
".............+++++                             +++............. ",
" .............+++++                           +++.............  ",
"  .............++++                          +++.............   ",
"   .............++++                        +++.............    ",
"    .............++++                      +++.............     ",
"     .............++++                    +++.............      ",
"      .............++++                   ++.............       ",
"       .............+++                  ++.............        ",
"        .............+++                ++.............         ",
"         .............+++              ++.............          ",
"          .............+++            ++.............           ",
"           .............+++          ++.............            ",
"            .............++         ++.............             ",
"             .............++        +.............              ",
"              .............++      +.............               ",
"               .............++    +.............                ",
"                .............++  +.............                 ",
"                 .............+ +.............                  ",
"                  .............+.............                   ",
"                   .........................                    ",
"                    .......................                     ",
"                     .....................                      ",
"                      ...................                       ",
"                       .................                        ",
"                        ...............                         ",
"                        ...............                         ",
"                       .................                        ",
"                      ...................                       ",
"                     .....................                      ",
"                    .......................                     ",
"                   .........................                    ",
"                  .............+.............                   ",
"                 .............+++.............                  ",
"                .............++  +.............                 ",
"               .............++   ++.............                ",
"              .............++     ++.............               ",
"             .............++       ++.............              ",
"            .............++         ++.............             ",
"           .............+++          ++.............            ",
"          .............+++           +++.............           ",
"         .............+++             +++.............          ",
"        .............+++               +++.............         ",
"       .............+++                 +++.............        ",
"      .............+++                   +++.............       ",
"     .............+++                    ++++.............      ",
"    .............++++                     ++++.............     ",
"   .............++++                       ++++.............    ",
"  .............++++                         ++++.............   ",
" .............++++                           ++++.............  ",
".............++++                            +++++............. ",
"............++++                              +++++.............",
"...........++++                                +++++............",
"..........+++++                                 +++++...........",
".........+++++                                   +++++..........",
"........+++++                                     +++++.........",
".......+++++                                      ++++++........",
"......+++++                                        ++++++......."};
