/* XPM */
static char * so0_xpm[] = {
"64 64 2 1",
" 	c #449300",
".	c #173100",
"                                                                ",
"                                                                ",
"                                                                ",
"                                                                ",
"                                             ......             ",
"                                           .........            ",
"                                         ............           ",
"                                      ...............           ",
"                                    .................           ",
"                                 ....................           ",
"                               ......................           ",
"                             .......................            ",
"                          .........................             ",
"                        .........................               ",
"                     ..........................                 ",
"                   ..........................                   ",
"                 .........................                      ",
"               .........................                        ",
"              .......................                           ",
"             ......................                             ",
"             ....................                               ",
"             .................                                  ",
"             ...............                                    ",
"             .................                                  ",
"              .................                                 ",
"               ..................                               ",
"                ...................                             ",
"                  ..................                            ",
"                   ...................                          ",
"                     ..................                         ",
"                       ..................                       ",
"                        ...................                     ",
"                          ..................                    ",
"                           ...................                  ",
"                             ..................                 ",
"                               ..................               ",
"                                ...................             ",
"                                  ..................            ",
"                                   ..................           ",
"                                     .................          ",
"                                       ...............          ",
"                                       ...............          ",
"                                     .................          ",
"                                   ...................          ",
"                                 ....................           ",
"                               .....................            ",
"                             ......................             ",
"                           ......................               ",
"                         ......................                 ",
"                       ......................                   ",
"                     ......................                     ",
"                   ......................                       ",
"                 ......................                         ",
"               ......................                           ",
"              .....................                             ",
"             ....................                               ",
"            ...................                                 ",
"            .................                                   ",
"            ...............                                     ",
"            .............                                       ",
"            ...........                                         ",
"             ........                                           ",
"              .....                                             ",
"                                                                "};
