/* XPM */
static char * cross_xpm[] = {
"21 21 2 1",
" 	c None",
".	c #FFFFFF",
"          .          ",
"          .          ",
"          .          ",
"          .          ",
"          .          ",
"          .          ",
"          .          ",
"          .          ",
"         . .         ",
"        .   .        ",
"........     ........",
"        .   .        ",
"         . .         ",
"          .          ",
"          .          ",
"          .          ",
"          .          ",
"          .          ",
"          .          ",
"          .          ",
"          .          "};
